# xmcd
#
# Track frame offsets:
#	150
#	20995
#	38789
#	63462
#	92635
#	112209
#	143085
#	169311
#	190086
#	212826
#	237436
#	263115
#	286360
#	306588
# Disc length: 4178 seconds
# Revision: 3
# Processed by: cddbd v1.5.1PL2 Copyright (c) Steve Scherf et al.
#
# Submitted via: libkcddb 0.20
#
DISCID=db10500e
DTITLE=Söhne Mannheims - NOIZ
DYEAR=2004
DGENRE=R&B
TTITLE0=Söhne Mannheims - Wenn du schläfst
TTITLE1=Vielleicht
TTITLE2=Von Anfang an dabei (Lied eines Palästinensers/Israelis)
TTITLE3=Babylon System
TTITLE4=König der Könige
TTITLE5=Traurige Lieder
TTITLE6=ZION
TTITLE7=Im Interesse unserer Gemeinschaft
TTITLE8=Ich geh mit dir
TTITLE9=Can you feel it?
TTITLE10=Dein Leben
TTITLE11=Zurück zu dir
TTITLE12=Und wenn ein Lied
TTITLE13=Vater unser
EXTD=YEAR: 2004
EXTT0=
EXTT1=
EXTT2=
EXTT3=
EXTT4=
EXTT5=
EXTT6=
EXTT7=
EXTT8=
EXTT9=
EXTT10=
EXTT11=
EXTT12=
EXTT13=
PLAYORDER=
